Coordinates
version=1
nRows=13
nColumns=40
inDegrees=yes

Units are S.I. units (second, meters, Newtons, ...)
Angles are in degrees.

endheader
time	pelvis_tilt	pelvis_list	pelvis_rotation	pelvis_tx	pelvis_ty	pelvis_tz	hip_flexion_r	hip_adduction_r	hip_rotation_r	knee_angle_r	knee_angle_r_beta	ankle_angle_r	subtalar_angle_r	mtp_angle_r	hip_flexion_l	hip_adduction_l	hip_rotation_l	knee_angle_l	knee_angle_l_beta	ankle_angle_l	subtalar_angle_l	mtp_angle_l	lumbar_extension	lumbar_bending	lumbar_rotation	arm_flex_r	arm_add_r	arm_rot_r	elbow_flex_r	pro_sup_r	wrist_flex_r	wrist_dev_r	arm_flex_l	arm_add_l	arm_rot_l	elbow_flex_l	pro_sup_l	wrist_flex_l	wrist_dev_l
     14.55000000	     -5.80109337	     -6.62416016	      2.93639452	      0.96759619	      0.92839755	      0.49838671	     13.43071425	      5.20585491	    -17.40978613	     14.13306112	     14.13306112	      9.08169576	      3.72165071	     -2.66026316	     38.49020558	    -13.11575637	      5.89371549	     72.54207638	     72.54207638	      1.30657963	    -16.10983530	      4.34861115	    -12.36908509	      3.89323164	      4.13142128	      9.20730508	    -16.34457258	      2.88488120	     61.12620703	     44.57415929	      0.00000000	      0.00000000	      0.96669853	     -6.27119061	     -9.87746733	     30.64430681	     45.00411619	      0.00000000	      0.00000000
     14.56157143	     -5.90089537	     -6.62647963	      3.05679395	      0.96634847	      0.92862099	      0.49896424	     12.86820910	      5.31657125	    -17.44414079	     13.81735118	     13.81735118	      9.29293494	      3.84494609	     -2.87378926	     39.95714089	    -13.08252465	      5.53273673	     71.21690516	     71.21690516	      1.63455459	    -16.85446081	      4.60656126	    -12.35343803	      3.87011783	      3.80979879	     11.42143059	    -16.14184663	      2.84927589	     62.92723919	     44.53577891	      0.00000000	      0.00000000	     -0.05366085	     -6.33054518	     -9.71361171	     28.68899088	     44.99678942	      0.00000000	      0.00000000
     14.57314286	     -6.03686664	     -6.62402275	      3.07961221	      0.96511854	      0.92871818	      0.49953301	     12.35059229	      5.43421786	    -17.35722796	     13.50752074	     13.50752074	      9.55288875	      3.95067446	     -2.95441830	     41.31324034	    -13.15148466	      4.97651626	     69.71442944	     69.71442944	      1.95041679	    -17.35198481	      4.89673574	    -12.30081953	      3.83750622	      4.21362220	     13.43596369	    -16.45101907	      2.63877672	     64.21395580	     44.51334155	      0.00000000	      0.00000000	     -1.04765770	     -6.21630799	     -9.64802917	     27.83320382	     44.98264058	      0.00000000	      0.00000000
     14.58471429	     -6.04470631	     -6.70242253	      3.27567725	      0.96402111	      0.92896121	      0.49991685	     11.55866152	      5.65681015	    -17.50789262	     12.89474883	     12.89474883	      9.58189465	      4.16228200	     -3.26261970	     42.44385902	    -13.04909951	      4.78575493	     68.05954384	     68.05954384	      2.85791589	    -17.65693963	      6.79921522	    -12.46371327	      3.95797673	      4.07905920	     14.76180353	    -16.96783384	      3.86242689	     68.54004185	     44.37136840	      0.00000000	      0.00000000	     -1.52896919	     -6.26386805	     -9.10541772	     24.91471613	     44.99214097	      0.00000000	      0.00000000
     14.59628571	     -6.09544415	     -6.70207997	      3.38215582	      0.96292854	      0.92911408	      0.50022259	     10.89925806	      5.78175618	    -17.45588372	     12.46479122	     12.46479122	      9.79815806	      4.23506998	     -3.26578470	     43.37062810	    -12.94752729	      4.41338843	     66.06121620	     66.06121620	      3.21800393	    -17.98150391	      7.51302255	    -12.51738674	      3.95465451	      3.93331979	     16.81971544	    -16.71894943	      3.51745354	     70.37902365	     44.34215045	      0.00000000	      0.00000000	     -2.68884778	     -6.28336848	     -8.97928953	     24.08132977	     44.97421297	      0.00000000	      0.00000000
     14.60785714	     -6.15147575	     -6.75679339	      3.49834106	      0.96183323	      0.92911419	      0.50039203	     10.23710232	      5.95554797	    -17.45970478	     11.99842554	     11.99842554	      9.98524010	      4.38995943	     -3.26661540	     44.17771742	    -12.81308336	      4.19293474	     63.85930153	     63.85930153	      3.74542062	    -18.13052150	      8.53133900	    -12.60424981	      4.03960454	      3.77549731	     18.68091285	    -16.55046507	      3.44920911	     72.77564716	     44.28788357	      0.00000000	      0.00000000	     -3.83307401	     -6.30612204	     -8.76965707	     23.33700475	     44.94448472	      0.00000000	      0.00000000
     14.61942857	     -6.27855213	     -6.79282589	      3.54931203	      0.96073497	      0.92889983	      0.50039460	      9.70507184	      6.07053052	    -17.49048191	     11.65293892	     11.65293892	     10.23422877	      4.63124273	     -3.37127965	     44.94345601	    -12.64209653	      4.00024051	     61.50993233	     61.50993233	      4.57306938	    -17.99650594	     10.56268737	    -12.58907077	      4.10322106	      4.35689693	     19.96423226	    -17.32571498	      3.69073131	     76.26206651	     44.22876683	      0.00000000	      0.00000000	     -4.71500990	     -6.32023712	     -7.92300536	     23.11132593	     44.85029311	      0.00000000	      0.00000000
     14.63100000	     -6.38746837	     -6.81846173	      3.63604568	      0.95971863	      0.92866196	      0.50020698	      9.11923144	      6.17604187	    -17.49254764	     11.24671988	     11.24671988	     10.48431855	      4.81195501	     -3.38000386	     45.42794224	    -12.38867088	      3.92916769	     58.73695161	     58.73695161	      4.86754138	    -17.90322253	     11.00087196	    -12.54837913	      4.16360653	      4.25308549	     21.91175841	    -17.07587365	      3.47387881	     78.33601298	     44.19270933	      0.00000000	      0.00000000	     -5.83486933	     -6.33480724	     -7.63351394	     22.72806408	     44.79658981	      0.00000000	      0.00000000
     14.64257143	     -6.50126086	     -6.83433005	      3.69554538	      0.95874763	      0.92830113	      0.49981639	      8.53639663	      6.25619963	    -17.51039372	     10.85095494	     10.85095494	     10.77611098	      5.06849201	     -3.40547365	     45.71607790	    -12.07382280	      3.97253145	     55.67983723	     55.67983723	      5.13846831	    -17.65930457	     11.29428963	    -12.51819622	      4.21997026	      4.23927102	     23.72374864	    -16.96814610	      3.45855849	     80.78379693	     44.13644743	      0.00000000	      0.00000000	     -6.92862971	     -6.33585911	     -7.34393302	     22.63469228	     44.73545520	      0.00000000	      0.00000000
     14.65414286	     -6.65216922	     -6.88339186	      3.74501849	      0.95780008	      0.92777442	      0.49931322	      7.99498169	      6.35523932	    -17.59446624	     10.46405997	     10.46405997	     11.04839421	      5.40700360	     -3.41826219	     45.88316400	    -11.77550148	      4.14460108	     52.38891521	     52.38891521	      5.34547610	    -17.14008065	     11.35667629	    -12.44785713	      4.30622058	      4.39405395	     25.42473832	    -17.06472598	      3.55844759	     83.65124187	     44.06741339	      0.00000000	      0.00000000	     -8.07774686	     -6.34270214	     -6.95487575	     22.89343688	     44.65189681	      0.00000000	      0.00000000
     14.66571429	     -6.77436520	     -6.87727287	      3.75524320	      0.95706692	      0.92716031	      0.49861347	      7.41729364	      6.38441932	    -17.55203967	     10.12144607	     10.12144607	     11.43617752	      5.69880983	     -3.48312269	     45.75167074	    -11.45024638	      4.29744177	     48.81693290	     48.81693290	      5.71981209	    -16.41259012	     11.40070679	    -12.33959488	      4.39519297	      4.49592148	     27.12454696	    -16.98418347	      3.55482083	     86.01783539	     44.01070293	      0.00000000	      0.00000000	     -9.07906345	     -6.37043985	     -6.68967924	     23.02674424	     44.58914290	      0.00000000	      0.00000000
     14.67728571	     -6.89175467	     -7.03640358	      3.80557140	      0.95647931	      0.92628461	      0.49781248	      6.75912857	      6.59397902	    -17.73643504	      9.63737106	      9.63737106	     11.79175836	      6.29020890	     -3.43562223	     45.51938126	    -11.25040439	      4.68345489	     45.13654482	     45.13654482	      5.94307626	    -15.47879269	     10.88169451	    -12.28588249	      4.64172958	      4.68702798	     28.46386329	    -17.24479468	      3.83932202	     90.01802590	     43.91430400	      0.00000000	      0.00000000	    -10.41060173	     -6.44680177	     -5.94253003	     24.14382733	     44.43743850	      0.00000000	      0.00000000
     14.68885714	     -6.98992582	     -7.04121546	      3.79477260	      0.95609124	      0.92537538	      0.49691645	      6.13226873	      6.61876618	    -17.78968267	      9.32369900	      9.32369900	     12.30997416	      6.73152478	     -3.31477642	     44.96814623	    -11.01765942	      4.84882359	     41.21878054	     41.21878054	      6.02301990	    -14.39783591	     10.02633501	    -12.23503294	      4.71348854	      5.33201749	     29.61359623	    -17.73383020	      3.64285915	     93.53776512	     43.90005129	      0.00000000	      0.00000000	    -11.69264811	     -6.80015221	     -3.81708689	     25.88662903	     44.10194349	      0.00000000	      0.00000000
